<?xml version="1.0" encoding="utf-8"?>
<!-- Uploaded to: SVG Repo, www.svgrepo.com, Generator: SVG Repo Mixer Tools -->
<svg width="800px" height="800px" viewBox="0 0 1024 1024" class="icon"  version="1.1" xmlns="http://www.w3.org/2000/svg"><path d="M0 0h1024v1024H0z" fill="#FFFFFF" /><path d="M868 169l-65-17 65-18 18-65 18 65 65 18-65 17-18 65-18-65zM133 809l-41-10 41-10 9-41 10 41 41 10-41 10-10 41-9-41z" fill="#FDCD60" /><path d="M932 240l-25-6 25-6 6-25 6 25 25 6-25 6-6 25-6-25zM122 471l-24-5 24-6 5-24 6 24 24 6-24 5-6 24-5-24z" fill="#FDCD60" /><path d="M123 280m-9 0a9 9 0 1 0 18 0 9 9 0 1 0-18 0Z" fill="#5546CB" /><path d="M863 734a25 25 0 1 1 25-25 25 25 0 0 1-25 25z m0-36a10 10 0 1 0 10 10 10 10 0 0 0-10-10z" fill="#5546CB" /><path d="M640 851a19 19 0 0 1-16 9H400a19 19 0 0 1-17-10 19 19 0 0 1 0-19q14-23 27-58c-30 4-57 10-80 17-44 14-70 32-70 49s26 36 70 49 113 24 182 24 133-9 182-24 70-32 70-49-26-36-70-49c-23-7-49-13-77-17q11 28 25 60a19 19 0 0 1-2 18z" fill="#FFFFFF" /><path d="M503 645v-20h52l-4-30h-44v-20h42l-3-30h-35v-21h33l-4-41h-8a45 45 0 0 1-35-16l-8 2h-1c-9 89-21 164-35 224s-32 113-52 145h222l-19-44H471v-18h125l-11-30h-94v-21h86l-9-29h-74v-22h69l-2-10-3-20z" fill="#AFBCF3" /><path d="M444 443c-32 0-60 3-83 8-40 8-66 22-78 43s-8 67 24 119c40-59 92-109 155-150a45 45 0 0 1-18-20z" fill="#FDCD60" /><path d="M557 439a25 25 0 0 0-1-8l-10-2h-14l-3 2a45 45 0 0 1-14 26 25 25 0 0 0 42-18zM491 378v-4c-10-72-34-120-72-142s-94-20-164 9a496 496 0 0 1 127 52 508 508 0 0 1 109 85zM722 407c-35-21-83-23-145-7a45 45 0 0 1-8 13 544 544 0 0 1 106 40 513 513 0 0 1 112 77c-9-60-31-102-65-123z" fill="#F97744" /><path d="M732 390c-26-16-58-23-95-20a314 314 0 0 0-57 9v-2l8-11c20-28 41-58 75-82s82-53 139-81l21-11-22-8c-53-18-99-27-137-27h-2c-40 0-73 11-97 31s-42 51-50 91c-4 20-6 43-6 69-5-23-11-44-18-62-14-33-34-57-60-72s-56-20-91-17-74 16-118 37l-27 13 30 6c54 11 105 30 151 57a484 484 0 0 1 94 73 45 45 0 0 0-28 40c-94 2-151 21-174 60-11 19-14 41-8 68s19 54 40 86l9 13 8-13a490 490 0 0 1 93-109 527 527 0 0 1 58-44c-13 114-29 203-49 268-35 4-66 11-93 19-69 22-84 49-84 68s14 46 84 68c50 16 117 25 188 25s138-9 188-25c69-22 84-49 84-68s-14-46-84-68c-27-8-58-15-92-19-14-37-23-68-27-91-7-37-14-99-22-186a45 45 0 0 0 18-36v-2a519 519 0 0 1 90 35 495 495 0 0 1 127 92l19 19-2-27c-10-83-36-138-81-166z m-349-97a496 496 0 0 0-127-52c70-28 125-31 164-9s62 70 72 142v4a508 508 0 0 0-109-85z m-76 319c-32-52-40-92-24-119s38-35 78-43c23-5 51-7 83-8a45 45 0 0 0 18 20c-64 41-115 91-155 150z m153-188a25 25 0 1 1 25 25 25 25 0 0 1-25-25z m234 366c44 14 70 32 70 49s-26 36-70 49-113 24-182 24-133-9-182-24-70-32-70-49 26-36 70-49c23-7 51-13 80-17q-12 35-27 58a19 19 0 0 0 0 19 19 19 0 0 0 17 10h224a19 19 0 0 0 16-9 19 19 0 0 0 1-18q-14-32-25-60c29 4 55 9 78 17zM561 664l2 10h-69v21h74l9 29h-86v21h94l11 30H471v20h133l19 44H402c20-33 37-82 52-145s25-136 35-224h1l8-2a45 45 0 0 0 35 16h8l4 41h-34v20h35l3 30h-42v20h44l4 30h-52v20h55z m-46-207a45 45 0 0 0 14-26l3-2h14l10 2a25 25 0 0 1-40 27z m20-48l-9-2a45 45 0 0 0-16-20 25 25 0 1 1 25 22z m0-70h-8c1-65 18-111 49-137s50-26 87-26 67 6 108 19c-47 25-88 49-120 71s-60 58-80 87v2a45 45 0 0 0-36-16z m141 114a544 544 0 0 0-106-40 45 45 0 0 0 8-13c62-17 110-15 145 7s56 63 66 123a513 513 0 0 0-113-77z" fill="#5546CB" /><path d="M571 354c20-28 43-61 80-87s72-47 120-71q-62-19-108-19c-36 0-65 9-87 26s-48 72-49 137h8a45 45 0 0 1 35 17zM535 359a25 25 0 0 0-25 28 45 45 0 0 1 16 20l9 2a25 25 0 0 0 0-50z" fill="#FDCD60" /><path d="M484 449a25 25 0 1 0-25-25 25 25 0 0 0 25 25z" fill="#FFFFFF" /></svg>
