<svg xmlns="http://www.w3.org/2000/svg" width="96" height="96" viewBox="0 0 15 15"><path fill="white" d="m3.914 14.086l.354.353zM4 14l-.354-.354zm2.5 0l.354-.354zm.146.146l-.353.354zm1.708 0L8 13.793zM8.5 14l.354.354zm2.5 0l-.354.354zm.086.086l-.354.353zM5 6h1V5H5zm4 0h1V5H9zm1.1 1.7a3.25 3.25 0 0 1-5.2 0l-.8.6c1.7 2.267 5.1 2.267 6.8 0zm-5.832 6.74l.086-.086l-.708-.708l-.085.086zm.94-.44h.085v-1h-.086zm.938.354l.147.146l.707-.707l-.146-.147zm2.561.146l.147-.146l-.708-.708l-.146.147zm1-.5h.086v-1h-.086zm.94.354l.085.085l.707-.707l-.085-.086zm1.439.646A1.914 1.914 0 0 0 14 13.086h-1c0 .505-.41.914-.914.914zm-1.354-.56c.36.358.846.56 1.354.56v-1a.9.9 0 0 1-.647-.268zm-.94-.44c.321 0 .628.127.854.354l.708-.708A2.2 2.2 0 0 0 9.793 13zm-.938.354c.226-.227.533-.354.853-.354v-1c-.585 0-1.147.232-1.56.646zM7.5 15c.453 0 .887-.18 1.207-.5L8 13.793a.7.7 0 0 1-.5.207zm-1.207-.5c.32.32.754.5 1.207.5v-1a.7.7 0 0 1-.5-.207zm-1-.5c.32 0 .627.127.853.354l.708-.708A2.2 2.2 0 0 0 5.293 13zm-.94.354c.227-.227.534-.354.854-.354v-1c-.585 0-1.147.232-1.56.646zM2.915 15c.508 0 .995-.202 1.354-.56l-.707-.708a.9.9 0 0 1-.647.268zM1 13.086C1 14.143 1.857 15 2.914 15v-1A.914.914 0 0 1 2 13.086zM7.5 1A5.5 5.5 0 0 1 13 6.5h1A6.5 6.5 0 0 0 7.5 0zM2 6.5A5.5 5.5 0 0 1 7.5 1V0A6.5 6.5 0 0 0 1 6.5zm-1 0v6.586h1V6.5zm13 6.586V6.5h-1v6.586z"/></svg>
